<svg xmlns="http://www.w3.org/2000/svg" viewBox="0 0 32 32.5"><defs><style>.cls-1,.cls-3{fill:#365399;}.cls-1,.cls-2,.cls-5,.cls-6{stroke:#fff;stroke-miterlimit:10;}.cls-2{fill:#253880;}.cls-4{fill:#fff;}.cls-5{fill:#f9a03e;}.cls-6{fill:#f39727;}</style></defs><title>favicon</title><g id="Capa_2" data-name="Capa 2"><g id="Capa_1-2" data-name="Capa 1"><path class="cls-1" d="M14.63,5.7l15.8-5s1.12-.59.85.5l0,4.86s.2.71-.78.89l-6.41,2Z"/><path class="cls-1" d="M14.63,5.7s-.62.15-.44,1.22l0,4.68s-.06.59,1.06.83L30.88,17.5s.52.21.46-.45V11.84s.15-.54-.83-.89l-6.39-2Z"/><path class="cls-2" d="M21.53,14.47l-6.66,2s-.81,0-.71,1.54,0,4.57,0,4.57.07.56.84.24l15.8-5.07s.56-.15.09-.3Z"/><path class="cls-3" d="M4.26,26.2a1,1,0,0,0-1-.69H2.62L.19,30.79a1.31,1.31,0,0,0-.13.57A1.18,1.18,0,0,0,.32,32a1,1,0,0,0,.86.37A.9.9,0,0,0,2,31.69l.2-.52h2.1l.19.52a.92.92,0,0,0,.88.69A1,1,0,0,0,6.27,32a1.16,1.16,0,0,0,.25-.65,1.33,1.33,0,0,0-.13-.58ZM2.85,29.54l.44-1.19.44,1.19Z"/><path class="cls-4" d="M5.41,32.44a1,1,0,0,1-.93-.73l-.18-.48h-2l-.18.48a1,1,0,0,1-.92.73,1,1,0,0,1-.91-.39A1.21,1.21,0,0,1,0,31.36a1.62,1.62,0,0,1,.13-.6l2.46-5.31h.69a1.08,1.08,0,0,1,1,.72l2.13,4.59a1.33,1.33,0,0,1,.14.61,1.27,1.27,0,0,1-.26.68A1,1,0,0,1,5.41,32.44ZM2.2,31.11H4.38l.21.55a.86.86,0,0,0,.82.66A.94.94,0,0,0,6.22,32a1.13,1.13,0,0,0,.24-.61,1.2,1.2,0,0,0-.13-.55L4.2,26.22a1,1,0,0,0-.92-.65H2.66L.24,30.82a1.29,1.29,0,0,0-.12.54A1.16,1.16,0,0,0,.37,32a.94.94,0,0,0,.81.34A.85.85,0,0,0,2,31.66ZM3.82,29.6H2.76l.53-1.43Zm-.89-.12h.71l-.35-1Z"/><path class="cls-3" d="M11.42,25.51h-1v4.71c0,.39-.24.58-.7.58s-.7-.19-.7-.58V26.39c0-.59-.34-.88-1-.88H7v5A1.56,1.56,0,0,0,7.8,32a3.82,3.82,0,0,0,1.9.47A3.85,3.85,0,0,0,11.6,32a1.56,1.56,0,0,0,.84-1.44V26.39C12.44,25.8,12.1,25.51,11.42,25.51Z"/><path class="cls-4" d="M9.7,32.49A3.84,3.84,0,0,1,7.77,32a1.6,1.6,0,0,1-.87-1.49V25.45H8c.72,0,1.08.31,1.08.94v3.83c0,.35.2.52.64.52s.64-.17.64-.52V25.45h1.08c.71,0,1.08.31,1.08.94v4.13A1.6,1.6,0,0,1,11.63,32,3.84,3.84,0,0,1,9.7,32.49ZM7,25.57v4.95a1.45,1.45,0,0,0,.81,1.38,3.71,3.71,0,0,0,1.87.47,3.76,3.76,0,0,0,1.87-.47,1.47,1.47,0,0,0,.81-1.38V26.39c0-.55-.32-.82-1-.82h-1v4.65c0,.29-.13.64-.76.64s-.76-.35-.76-.64V26.39c0-.55-.32-.82-1-.82Z"/><path class="cls-3" d="M17.81,25.51H12.87v.81a.73.73,0,0,0,.83.81h1v5.26h1c.68,0,1-.3,1-.89V27.13h1a.81.81,0,1,0,0-1.62Z"/><path class="cls-4" d="M15.75,32.45H14.67V27.19h-1a.79.79,0,0,1-.89-.87v-.87h5a.87.87,0,1,1,0,1.74h-1V31.5C16.83,32.13,16.46,32.45,15.75,32.45Zm-1-.12h1c.64,0,1-.27,1-.83V27.06h1.1c.51,0,.76-.24.76-.74a.66.66,0,0,0-.76-.75H12.94v.75c0,.5.24.74.76.74h1.09Z"/><path class="cls-3" d="M22.67,25.3a3.67,3.67,0,0,0-2.65,1,3.75,3.75,0,0,0,0,5.16,3.66,3.66,0,0,0,2.64,1,3.7,3.7,0,0,0,2.65-1,3.37,3.37,0,0,0,1-2.57,3.41,3.41,0,0,0-1-2.59A3.64,3.64,0,0,0,22.67,25.3Zm1.24,4.84a1.59,1.59,0,0,1-1.24.51,1.61,1.61,0,0,1-1.23-.5A1.75,1.75,0,0,1,21,28.88a1.79,1.79,0,0,1,.47-1.28,1.78,1.78,0,0,1,2.47,0,2,2,0,0,1,0,2.54Z"/><path class="cls-4" d="M22.66,32.5a3.77,3.77,0,0,1-2.68-1,3.81,3.81,0,0,1,0-5.25,3.72,3.72,0,0,1,2.69-1,3.75,3.75,0,0,1,2.7,1,3.81,3.81,0,0,1,0,5.25A3.81,3.81,0,0,1,22.66,32.5Zm0-7.14a3.61,3.61,0,0,0-2.61,1,3.37,3.37,0,0,0-1,2.54,3.32,3.32,0,0,0,1,2.53,3.61,3.61,0,0,0,2.59,1,3.7,3.7,0,0,0,2.61-1,3.32,3.32,0,0,0,1-2.53,3.37,3.37,0,0,0-1-2.54A3.59,3.59,0,0,0,22.67,25.36Zm0,5.35a1.7,1.7,0,0,1-1.28-.52,1.84,1.84,0,0,1-.48-1.31,1.88,1.88,0,0,1,.48-1.32A1.68,1.68,0,0,1,22.68,27a1.66,1.66,0,0,1,1.28.53,2,2,0,0,1,0,2.63h0A1.69,1.69,0,0,1,22.67,30.71Zm0-3.55a1.57,1.57,0,0,0-1.2.48A1.77,1.77,0,0,0,21,28.88a1.74,1.74,0,0,0,.45,1.23,1.56,1.56,0,0,0,1.19.48,1.54,1.54,0,0,0,1.19-.49,1.73,1.73,0,0,0,.45-1.23,1.78,1.78,0,0,0-.44-1.23A1.56,1.56,0,0,0,22.68,27.16Z"/><path class="cls-3" d="M31.15,28.52a4.3,4.3,0,0,0-.85-.35,8.53,8.53,0,0,1-1-.43c-.24-.13-.37-.29-.37-.47,0-.45.64-.43,2,.05.52.13.87-.3,1-1.32a5.88,5.88,0,0,0-2.54-.69,2.34,2.34,0,0,0-1.63.63,2.13,2.13,0,0,0-.68,1.62,1.64,1.64,0,0,0,.75,1.52,2.54,2.54,0,0,0,.85.38,10.14,10.14,0,0,1,1,.4.53.53,0,0,1,.38.47c0,.21-.23.32-.7.36A5.93,5.93,0,0,1,27.08,30a1.23,1.23,0,0,0-.37,1c0,.49.31.83.93,1a6.34,6.34,0,0,0,1.93.31,2.32,2.32,0,0,0,1.64-.6,2.11,2.11,0,0,0,.68-1.65A2,2,0,0,0,31.15,28.52Z"/><path class="cls-4" d="M29.57,32.46a6.41,6.41,0,0,1-1.95-.31c-.64-.22-1-.59-1-1.1A1.32,1.32,0,0,1,27,30l0,0h0a5.87,5.87,0,0,0,2.29.66c.3,0,.65-.09.65-.3s-.11-.31-.34-.42a10.48,10.48,0,0,0-1-.39,2.69,2.69,0,0,1-.86-.39A1.71,1.71,0,0,1,27,27.55a2.23,2.23,0,0,1,.7-1.66,2.43,2.43,0,0,1,1.67-.64A6,6,0,0,1,32,26l0,0v0a1.9,1.9,0,0,1-.59,1.3.62.62,0,0,1-.52.07c-1.27-.45-1.71-.41-1.85-.3a.18.18,0,0,0-.07.19q0,.24.33.42a8.5,8.5,0,0,0,1,.42,4,4,0,0,1,.86.36h0A2,2,0,0,1,32,30.15a2.17,2.17,0,0,1-.7,1.7A2.43,2.43,0,0,1,29.57,32.46ZM27.09,30.1a1.24,1.24,0,0,0-.32.95c0,.46.29.78.89,1a6.21,6.21,0,0,0,1.91.31,2.31,2.31,0,0,0,1.6-.58,2.07,2.07,0,0,0,.66-1.61,1.88,1.88,0,0,0-.72-1.58,4.59,4.59,0,0,0-.83-.35,7.38,7.38,0,0,1-1.05-.43c-.26-.14-.4-.31-.4-.52A.32.32,0,0,1,29,27c.25-.19.89-.1,2,.28a.5.5,0,0,0,.42-.06A1.71,1.71,0,0,0,31.86,26a5.8,5.8,0,0,0-2.46-.67,2.34,2.34,0,0,0-1.6.61,2.15,2.15,0,0,0-.66,1.58A1.57,1.57,0,0,0,27.87,29h0a2.51,2.51,0,0,0,.81.36,9.89,9.89,0,0,1,1.06.4.6.6,0,0,1,.41.53c0,.24-.26.38-.76.42A5.79,5.79,0,0,1,27.09,30.1Z"/><path class="cls-5" d="M2.93,7.89l15.8-5s1.12-.59.85.5l0,4.86s.2.71-.78.89l-6.42,2Z"/><path class="cls-5" d="M2.93,7.89S2.31,8,2.49,9.11l0,4.68s-.06.59,1.06.83l15.65,5.07s.53.21.47-.45V14s.15-.54-.83-.89l-6.4-2Z"/><path class="cls-6" d="M9.83,16.66l-6.66,2s-.81,0-.71,1.54,0,4.57,0,4.57.07.56.84.24L19.09,20s.56-.14.08-.3Z"/></g></g></svg>