<svg xmlns="http://www.w3.org/2000/svg" viewBox="0 0 537.92 379.77"><defs><style>.cls-1{fill:#f9a03e;stroke:#000;stroke-miterlimit:10;stroke-width:0.25px;}</style></defs><title>icono3</title><g id="Capa_2" data-name="Capa 2"><g id="Capa_1-2" data-name="Capa 1"><path class="cls-1" d="M259.82,114.28c0,4.6,2,11.36,19,17,7.24,2.41,29.28,9.76,29.28,31.27A31.69,31.69,0,0,1,284,193.33v3.22a7.5,7.5,0,0,1-15,0v-3.22a31.69,31.69,0,0,1-24.16-30.74,7.5,7.5,0,1,1,15,0,16.66,16.66,0,0,0,33.31,0c0-5.29-2.26-11.45-19-17-19.43-6.48-29.28-17-29.28-31.27A31.7,31.7,0,0,1,269,83.54V80.32a7.5,7.5,0,0,1,15,0v3.22a31.71,31.71,0,0,1,24.15,30.74,7.5,7.5,0,0,1-15,0,16.66,16.66,0,0,0-33.31,0ZM537.8,7.62V269.25a7.5,7.5,0,0,1-7.5,7.5h-7.53v42.9a7.51,7.51,0,0,1-7.5,7.5,6,6,0,0,1-.74,0L492.71,325v47.2a7.51,7.51,0,0,1-7.5,7.5,7.64,7.64,0,0,1-1.58-.17L6.13,276.6H6.05l-.34-.09-.25-.07-.31-.1-.11,0-.22-.08-.06,0-.27-.12-.28-.13-.06,0h0a2,2,0,0,1-.25-.14l-.25-.14-.11-.08a1.64,1.64,0,0,1-.22-.14l-.21-.16L3,275.11,2.77,275l-.18-.16-.16-.15-.16-.16-.14-.14L2,274.14,1.81,274l-.1-.14-.17-.23a1.77,1.77,0,0,1-.12-.17l-.09-.13-.16-.26-.1-.18c0-.06-.06-.12-.09-.17l-.12-.23a2,2,0,0,0-.1-.21,1.67,1.67,0,0,0-.08-.2c0-.07-.05-.13-.08-.19s-.06-.17-.08-.25a2.09,2.09,0,0,1-.08-.23s0-.1,0-.15-.05-.2-.07-.3a1.83,1.83,0,0,1-.06-.25s0-.07,0-.1l-.06-.39,0-.23v-.05c0-.22,0-.45,0-.68V7.62A7.5,7.5,0,0,1,7.62.12H530.3A7.5,7.5,0,0,1,537.8,7.62ZM452.47,261.75a78.31,78.31,0,0,1,70.33-70.33v-106a78.32,78.32,0,0,1-70.33-70.33h-367A78.31,78.31,0,0,1,15.12,85.45v106a78.31,78.31,0,0,1,70.33,70.33Zm-382.11,0a63.3,63.3,0,0,0-55.24-55.24v55.24Zm0-246.63H15.12V70.36A63.29,63.29,0,0,0,70.36,15.12Zm452.44,0H467.56A63.3,63.3,0,0,0,522.8,70.36ZM477.71,323.46,138.54,289.78l339.17,73.08v-39.4Zm30.06-46.71H159.07l348.7,34.62Zm15-15V206.51a63.31,63.31,0,0,0-55.24,55.24H522.8ZM347.32,79.55A7.5,7.5,0,0,0,345.5,90a84.29,84.29,0,1,1-20.59-20.59,7.5,7.5,0,0,0,8.63-12.27,99.34,99.34,0,1,0,24.23,24.24A7.5,7.5,0,0,0,347.32,79.55Z"/></g></g></svg>