<svg xmlns="http://www.w3.org/2000/svg" viewBox="0 0 488.57 318.66"><defs><style>.cls-1{fill:#f9a03e;stroke:#000;stroke-miterlimit:10;stroke-width:0.25px;}</style></defs><title>icono1</title><g id="Capa_2" data-name="Capa 2"><g id="Layer_1" data-name="Layer 1"><path class="cls-1" d="M329.26,62.44l-123.5-42.6a47.83,47.83,0,0,0-36,2.2l-6.2,3a35,35,0,0,1-27.1,1.5l-10.6-3.8a10.93,10.93,0,0,0-1.5-.8L61.16.44a6.11,6.11,0,0,0-4.6.3,5.92,5.92,0,0,0-3,3.4L.46,159a6,6,0,0,0,3.7,7.6l63.3,21.7a4.77,4.77,0,0,0,2,.4,5.83,5.83,0,0,0,2.6-.6,5.92,5.92,0,0,0,3-3.4l51.1-149,6.4,2.3a47.44,47.44,0,0,0,36.4-2.1l6.2-3a35.14,35.14,0,0,1,26.8-1.7l118.9,41c-.9,5.2-3.4,13.8-9.9,18.3-5.8,4-14.2,4.2-24.8.5l-51.9-17.7a6.18,6.18,0,0,0-4.8.4,6.34,6.34,0,0,0-3,3.8c-.1.3-7.8,28.7-31.8,41.5-15.2,8.2-34,8.5-55.9,1a6,6,0,0,0-3.9,11.3,102.8,102.8,0,0,0,33.1,6,67,67,0,0,0,32.4-7.9c21.4-11.5,31.7-32.5,35.6-42.9l46.1,15.8c14.5,5,26.4,4.3,35.6-2,14.8-10.2,15.5-31.2,15.6-32.1A6,6,0,0,0,329.26,62.44ZM65.76,175l-52-17.8L63,13.74,113.56,31l1.2.6.2.1Z"/><path class="cls-1" d="M487.86,151.14,415.66,4.44a5.92,5.92,0,0,0-3.4-3,6.11,6.11,0,0,0-4.6.3l-60.1,29.4a6,6,0,0,0-2.8,8l70,143-23.5,21.5a281.25,281.25,0,0,1-66.7,45.5l-115.1,56.3a12.92,12.92,0,0,1-10.2.6,13.58,13.58,0,0,1-7.7-6.8A12.92,12.92,0,0,1,191,289a13.58,13.58,0,0,1,6.8-7.7l64.3-31.5a6,6,0,0,0-5.2-10.8L194,269.84l-31.7,15.5a13.37,13.37,0,1,1-11.8-24l92.4-45.2a6,6,0,0,0-5.2-10.8l-68.4,33.5-24,11.7L134,256a13.37,13.37,0,1,1-11.8-24l11.4-5.6,82.7-40.5a6,6,0,0,0-5.2-10.8l-53.1,26-29.6,14.5a12.92,12.92,0,0,1-10.2.6,13.58,13.58,0,0,1-7.7-6.8,12.92,12.92,0,0,1-.6-10.2,13.58,13.58,0,0,1,6.8-7.7l43.9-21.5a6,6,0,1,0-5.2-10.8l-43.9,21.5a25.42,25.42,0,0,0-12.9,14.6,25.25,25.25,0,0,0,11.9,30.5,25.33,25.33,0,0,0,17.8,43.4c1.1,0,2.2-.1,3.3-.2a25.73,25.73,0,0,0,2.2,15.3,25.31,25.31,0,0,0,22.8,14.2,24.73,24.73,0,0,0,11.1-2.6l10.9-5.4a24.21,24.21,0,0,0,2.5,13.7,25.42,25.42,0,0,0,14.6,12.9,26.29,26.29,0,0,0,8.3,1.4,25.46,25.46,0,0,0,11.1-2.6l115.1-56.3a292.18,292.18,0,0,0,69.5-47.5l26.1-24,59.3-29A6,6,0,0,0,487.86,151.14Zm-63,24.4-66.7-136.3,49.4-24.1,66.6,136.3Z"/></g></g></svg>