<svg xmlns="http://www.w3.org/2000/svg" viewBox="0 0 527.36 525.01"><defs><style>.cls-1,.cls-3{fill:#365399;}.cls-1,.cls-2,.cls-3,.cls-4,.cls-5{stroke:#fff;stroke-miterlimit:10;}.cls-2{fill:#253880;}.cls-3{stroke-width:2px;}.cls-4{fill:#f9a03e;}.cls-5{fill:#f39727;}</style></defs><title>Recurso 2</title><g id="Capa_2" data-name="Capa 2"><g id="Capa_1-2" data-name="Capa 1"><path class="cls-1" d="M241.12,85.74,501.48,3.11s18.49-9.68,14,8.24L516.18,91s3.23,11.69-12.8,14.59l-105.8,33.07Z"/><path class="cls-1" d="M241.12,85.74s-10.25,2.45-7.24,19.94l-.56,76.73s-.89,9.69,17.49,13.58l258,83.08s8.69,3.45,7.69-7.24l.11-85.52s2.45-8.8-13.59-14.59L397.58,138.64Z"/><path class="cls-2" d="M354.82,229.4,245,262.92s-13.26.45-11.7,25.28-.11,74.84-.11,74.84,1.11,9.24,13.81,3.9l260.37-83.08s9.24-2.34,1.44-4.9S354.82,229.4,354.82,229.4Z"/><path class="cls-3" d="M36.89,503.16l-3.23,8.5Q29.34,523,19.45,523t-14.17-6Q1,511.08,1,506.33A22.15,22.15,0,0,1,3.12,497L43.25,410.4H54.11q10.86,0,16,11.34L105.27,497a21.92,21.92,0,0,1,2.2,9.43q0,4.75-4.15,10.68T89.11,523q-10,0-14.38-11.35l-3.23-8.5Zm24.6-26.7L54.2,456.94l-7.3,19.52Z"/><path class="cls-3" d="M205,492.48q0,15.93-13.79,23.65t-31.35,7.71q-17.56,0-31.35-7.71t-13.78-23.65V410.4h16.79q16.8,0,16.8,14.51v62.73q0,9.51,11.54,9.51t11.54-9.51V410.4h16.8q16.8,0,16.8,14.51Z"/><path class="cls-3" d="M276.31,436.92v71.74q0,14.52-16.8,14.52h-16.8V436.92h-17q-13.58,0-13.57-13.26V410.4h81.27q13.57,0,13.58,13.26t-13.58,13.26Z"/><path class="cls-3" d="M434.28,465.62q0,26.1-17.22,42.25T373.45,524q-26.38,0-43.44-16.14T313,465.62q0-26.12,17-42.34t43.73-16.22q26.77,0,43.69,16.22T434.28,465.62Zm-40.21-20.94q-7.63-8.26-20.37-8.26t-20.44,8.3q-7.72,8.31-7.72,20.94t7.72,20.81q7.71,8.17,20.4,8.18T394,486.39q7.68-8.26,7.68-20.86T394.07,444.68Z"/><path class="cls-3" d="M487.26,523.34a99.79,99.79,0,0,1-31.68-5.09q-15.36-5.09-15.36-16.93t6-16.85q26.64,11.68,38.22,10.85T496,489.48c0-3.28-2.06-5.89-6.19-7.8a159,159,0,0,0-17.26-6.47q-11.08-3.58-13.87-6.25-12.9-8.43-12.48-25t11.2-26.57q10.51-9.84,27-10.26t41.83,11.35q-4.34,24.94-17.14,21.6-33.76-11.83-32.92-.75,0,4.43,6.07,7.63a123.78,123.78,0,0,0,17.09,7q11,3.79,14,5.8,12.21,9.51,12.22,26.65t-11.2,27.15Q503.6,523.35,487.26,523.34Z"/><path class="cls-4" d="M48.27,121.65,308.64,39s18.49-9.69,14,8.24l.67,79.62s3.23,11.69-12.81,14.59L204.74,174.54Z"/><path class="cls-4" d="M48.27,121.65S38,124.1,41,141.58l-.56,76.73S39.59,228,58,231.9L316,315s8.69,3.46,7.68-7.24l.12-85.52s2.45-8.8-13.59-14.59L204.74,174.54Z"/><path class="cls-5" d="M162,265.31,52.17,298.83s-13.25.44-11.69,25.27-.11,74.84-.11,74.84,1.11,9.24,13.81,3.9l260.36-83.08s9.25-2.34,1.45-4.9S162,265.31,162,265.31Z"/></g></g></svg>